<svg width="21" height="20" viewBox="0 0 21 20" fill="none" xmlns="http://www.w3.org/2000/svg">
<path d="M4.88738 0.652401C1.06377 1.3545 -1.0803 5.6853 0.555243 9.40194C0.88785 10.1531 1.2287 10.6202 2.22515 11.6784L3.15287 12.6601L3.27795 12.379C3.38515 12.144 3.55008 11.9451 4.33899 11.1204C5.33131 10.0882 5.46463 9.98006 5.90581 9.90797C6.42396 9.81715 6.85553 9.99015 7.30359 10.4645C7.66231 10.8451 7.80799 11.1305 7.83411 11.5097L7.85197 11.7865L8.1461 11.8369C8.55979 11.9047 8.7852 12.0359 9.13017 12.4021C9.47515 12.7683 9.60022 13.0047 9.66482 13.4026L9.70743 13.6881L9.98368 13.7385C10.139 13.7659 10.3465 13.8337 10.4455 13.8884C10.653 14.0009 11.1272 14.468 11.2743 14.7073C11.3952 14.9019 11.512 15.2955 11.512 15.5046C11.512 15.6444 11.5203 15.6545 11.655 15.6545C11.8488 15.6545 12.2377 15.7814 12.3971 15.8938C12.47 15.9443 12.6432 16.1014 12.7902 16.247C13.105 16.5642 13.3207 16.6406 13.619 16.5555C13.8224 16.4964 14.1578 16.1894 14.3131 15.9212C14.4258 15.7309 14.434 15.3921 14.3351 15.1874C14.2966 15.1052 13.2946 14.024 12.1126 12.7798C10.8262 11.4261 9.95894 10.476 9.95482 10.4255C9.93695 10.1358 10.0799 9.94978 10.3177 9.94978C10.4386 9.94978 10.6764 10.1805 12.6569 12.2579C13.865 13.5251 14.9137 14.5848 14.9783 14.6122C15.146 14.6756 15.3714 14.6713 15.539 14.5934C15.7507 14.4983 16.1561 14.0283 16.2166 13.8063C16.3197 13.3896 16.3802 13.4675 13.9681 10.9099C11.8666 8.68255 11.7718 8.5701 11.7718 8.41151C11.7718 8.18949 11.9147 8.04965 12.1429 8.04965C12.3064 8.04532 12.3408 8.07704 14.4904 10.3535C16.7513 12.7481 16.7609 12.7567 17.0921 12.7567C17.3464 12.7567 17.8384 12.3487 17.9896 12.0099C18.0927 11.7749 18.0927 11.6077 17.9855 11.3814C17.9291 11.2588 16.9189 10.1689 14.9563 8.10443C12.1951 5.21243 11.9958 5.0178 11.8584 5.0178C11.7209 5.0178 11.5945 5.13602 10.1101 6.68871C9.23463 7.60706 8.4361 8.40863 8.34126 8.46774C7.48638 9.01557 6.36074 8.88871 5.66117 8.16498C5.2942 7.78006 5.19937 7.25096 5.41927 6.8026C5.4715 6.70312 6.43359 5.64349 7.63344 4.36761L9.75828 2.10994L9.60709 1.97874C8.86904 1.32278 7.84235 0.834055 6.81017 0.648079C6.35799 0.561579 5.3533 0.565901 4.88738 0.652401Z" fill="#C41C1B"/>
<path d="M13.7979 0.648051C12.6503 0.855653 11.6579 1.35015 10.8113 2.14595C10.6299 2.31751 9.47812 3.52131 8.24802 4.82603L6.02148 7.19327L6.04347 7.3605C6.08608 7.6373 6.46679 7.90834 6.93684 8.00349C7.2131 8.05827 7.59656 7.99916 7.86044 7.85932C7.96765 7.80454 8.6631 7.11686 9.65542 6.08029C11.1576 4.51463 11.291 4.38776 11.5067 4.31423C11.7871 4.21908 12.1156 4.24215 12.3575 4.37334C12.4565 4.42813 13.7553 5.76313 15.5503 7.65028C18.0957 10.3304 18.5877 10.8638 18.6578 11.0454C18.7004 11.168 18.7526 11.2631 18.7705 11.2631C18.8351 11.2631 19.3491 10.6245 19.6034 10.2179C20.0569 9.51148 20.3497 8.76037 20.5132 7.88671C20.6259 7.28986 20.6163 6.13508 20.4954 5.5512C19.9511 2.94464 18.0915 1.06614 15.6327 0.649494C15.1654 0.565877 14.2418 0.565876 13.7979 0.648051Z" fill="#C41C1B"/>
<path d="M6.00043 10.6735C5.7764 10.7283 5.65545 10.8364 4.77033 11.7865C3.83436 12.7913 3.77801 12.8821 3.87284 13.2483C3.93332 13.4833 4.33052 13.9547 4.55043 14.0499C4.7181 14.1263 4.94351 14.1321 5.11118 14.0629C5.25412 14.0081 6.95839 12.2478 7.05322 12.0575C7.16592 11.8311 7.14393 11.5241 6.99687 11.279C6.74261 10.8508 6.33578 10.6014 6.00043 10.6735Z" fill="#C41C1B"/>
<path d="M7.62636 12.6659C7.42295 12.7784 5.78741 14.5084 5.73243 14.6713C5.65409 14.8789 5.67608 15.2047 5.77504 15.3777C5.82314 15.4599 5.95646 15.6271 6.07328 15.7439C6.32755 16.0063 6.55708 16.0827 6.84982 16.0063C7.0175 15.9616 7.14395 15.852 7.81603 15.16C8.23935 14.7203 8.65717 14.2676 8.74788 14.1508C8.94167 13.9014 8.9939 13.6535 8.91556 13.404C8.85096 13.1964 8.43177 12.7207 8.2421 12.6385C8.05381 12.552 7.80779 12.5621 7.62636 12.6659Z" fill="#C41C1B"/>
<path d="M9.55224 14.5444C9.42717 14.5891 9.14679 14.8529 8.49944 15.5262C8.01565 16.0336 7.5937 16.508 7.55934 16.5901C7.40816 16.9563 7.54148 17.3499 7.93043 17.7031C8.21081 17.9568 8.46096 18.0116 8.74134 17.8934C8.93925 17.8069 10.5748 16.1144 10.6957 15.8707C10.7947 15.6675 10.7988 15.4224 10.7081 15.2234C10.605 14.9928 10.1735 14.5848 9.97418 14.5257C9.76802 14.4665 9.7584 14.4665 9.55224 14.5444Z" fill="#C41C1B"/>
<path d="M11.2523 16.5137C11.0283 16.6363 9.45324 18.3202 9.37489 18.5191C9.24158 18.8579 9.31442 19.139 9.63328 19.4966C9.74049 19.6191 9.89717 19.7503 9.97826 19.7907C10.1418 19.8728 10.4139 19.8858 10.5912 19.8137C10.7424 19.7546 12.2955 18.1428 12.4646 17.8761C12.5979 17.6584 12.6281 17.396 12.547 17.1697C12.4866 16.9981 12.077 16.5584 11.9121 16.4864C11.7183 16.3999 11.4324 16.4085 11.2523 16.5137Z" fill="#C41C1B"/>
</svg>
