<svg width="144" height="20" viewBox="0 0 144 20" fill="none" xmlns="http://www.w3.org/2000/svg">
<path d="M31.4876 19.3971C30.1132 19.3971 28.9862 19.325 28.1065 19.1664C27.2269 19.0079 26.5535 18.6907 26.0862 18.2149C25.6189 17.7392 25.3027 17.0328 25.1241 16.0957C24.9591 15.1586 24.8629 13.9043 24.8629 12.3473L24.8354 1.11664H27.9966V5.038C28.0928 5.038 28.299 5.038 28.6426 5.02358C28.9862 5.00917 29.3985 4.99475 29.8658 4.99475C30.3331 4.98033 30.8004 4.96592 31.2539 4.93708C31.7075 4.90825 32.1061 4.90825 32.4497 4.90825C34.099 4.90825 35.3772 5.13892 36.298 5.58584C37.2189 6.04718 37.8648 6.79685 38.2359 7.84927C38.607 8.9017 38.8132 10.329 38.8407 12.1311C38.8407 13.8611 38.6757 15.2162 38.3459 16.1966C38.016 17.1769 37.535 17.8978 36.9165 18.3591C36.298 18.8204 35.5283 19.1088 34.6212 19.2241C33.6866 19.3394 32.6558 19.3971 31.4876 19.3971ZM31.5151 17.5229C32.5871 17.5229 33.4255 17.3932 34.0027 17.1481C34.58 16.903 34.9923 16.3696 35.2397 15.5767C35.4734 14.7837 35.5971 13.5871 35.5971 11.9725C35.5696 10.6461 35.4321 9.62254 35.1847 8.87286C34.9373 8.12319 34.525 7.58977 33.9615 7.2726C33.398 6.95543 32.6558 6.78243 31.7075 6.78243C31.4601 6.78243 31.1302 6.78243 30.7454 6.79685C30.3606 6.81126 29.962 6.82568 29.5772 6.82568C29.1923 6.8401 28.8487 6.85451 28.5601 6.85451C28.2715 6.86893 28.0791 6.86893 27.9966 6.86893V12.7077C27.9966 13.7601 28.0378 14.6107 28.1203 15.2307C28.2027 15.8506 28.3539 16.3263 28.5876 16.6579C28.8212 16.9751 29.1648 17.2058 29.6321 17.3211C30.1132 17.4653 30.7454 17.5229 31.5151 17.5229Z" fill="#3257A4"/>
<path d="M48.4754 19.5124C47.3346 19.5124 46.3176 19.4259 45.438 19.2385C44.5583 19.0655 43.8024 18.7195 43.1702 18.2149C42.538 17.7103 42.0707 16.9606 41.7408 15.9803C41.4247 15 41.2598 13.7169 41.2598 12.131C41.2598 10.5452 41.4247 9.26208 41.7408 8.28174C42.0569 7.3014 42.538 6.55173 43.1702 6.04714C43.8024 5.54256 44.5583 5.19655 45.438 5.02355C46.3176 4.85055 47.3346 4.74963 48.4754 4.74963C49.5749 4.74963 50.5645 4.83613 51.4441 5.02355C52.3237 5.19655 53.0797 5.54256 53.6981 6.04714C54.3166 6.55173 54.7977 7.3014 55.1275 8.28174C55.4574 9.26208 55.6223 10.5452 55.6223 12.131C55.6223 13.7457 55.4574 15.0432 55.1275 16.0236C54.7977 17.0039 54.3166 17.7536 53.6981 18.2437C53.0797 18.7339 52.3237 19.0655 51.4441 19.2529C50.5645 19.4259 49.5749 19.5124 48.4754 19.5124ZM48.4754 17.7103C49.3 17.7103 50.001 17.5806 50.592 17.3211C51.1692 17.0616 51.6228 16.5281 51.9114 15.7352C52.2138 14.9423 52.3512 13.7457 52.3512 12.131C52.3512 10.5163 52.2 9.31975 51.9114 8.52683C51.609 7.73391 51.1692 7.20049 50.592 6.94098C50.0147 6.68148 49.3 6.55173 48.4754 6.55173C47.6508 6.55173 46.9361 6.68148 46.3451 6.94098C45.7541 7.20049 45.3005 7.73391 44.9844 8.52683C44.682 9.31975 44.5171 10.5163 44.5171 12.131C44.5171 13.7457 44.6683 14.9423 44.9844 15.7352C45.2868 16.5281 45.7403 17.0616 46.3451 17.3211C46.9498 17.5806 47.6508 17.7103 48.4754 17.7103Z" fill="#3257A4"/>
<path d="M58.5774 19.2962L58.5361 2.37087C58.5361 1.86629 58.6049 1.52028 58.756 1.34728C58.9072 1.17428 59.2371 1.07336 59.7319 1.07336H61.7935V12.1022L67.6347 5.68673C67.9371 5.3984 68.2395 5.18215 68.5418 5.05239C68.8442 4.92264 69.2977 4.85056 69.8612 4.85056C70.3011 4.85056 70.6996 4.85056 71.057 4.86498C71.4281 4.87939 71.7579 4.89381 72.0466 4.92264C71.9778 4.99473 71.8404 5.11006 71.6205 5.28306C71.4006 5.45606 71.1669 5.64348 70.9195 5.84532C70.6721 6.04715 70.4385 6.24899 70.2323 6.4364L65.8067 10.8624L71.7854 17.8112C72.0328 18.0996 72.2939 18.3591 72.5413 18.6042C72.7887 18.8493 73.0361 19.0655 73.256 19.2818C72.6788 19.3106 72.1015 19.3106 71.5243 19.3106C70.947 19.3106 70.4248 19.3106 69.9575 19.3106C69.4352 19.3106 69.0366 19.2385 68.7755 19.1088C68.5143 18.979 68.2257 18.7483 67.9371 18.4456L63.5802 13.2988L61.7935 14.8846V19.2818H58.5774V19.2962Z" fill="#3257A4"/>
<path d="M79.6603 19.4404C79.2205 19.4404 78.712 19.4259 78.121 19.4115C77.53 19.3827 76.9253 19.3394 76.3205 19.2529C75.7158 19.1664 75.166 19.0367 74.685 18.8781C74.3826 18.806 74.149 18.7051 73.984 18.5898C73.8191 18.4744 73.6817 18.2582 73.6129 17.9554C73.5305 17.6527 73.4893 17.1913 73.4893 16.5714C74.0665 16.8309 74.6987 17.0472 75.4134 17.2058C76.1281 17.3643 76.8291 17.4653 77.53 17.5085C78.231 17.5518 78.8357 17.5806 79.3305 17.5806C79.949 17.5806 80.5674 17.5518 81.1722 17.5085C81.7769 17.4653 82.3404 17.3499 82.849 17.1913C83.3575 17.0183 83.7698 16.7588 84.0859 16.3984C84.3883 16.038 84.5532 15.5478 84.5532 14.9279C84.5532 14.0917 84.3471 13.5439 83.9347 13.3132C83.5224 13.0681 82.9452 12.9528 82.2167 12.9528H78.6158C77.7224 12.9528 76.8978 12.8951 76.1281 12.7798C75.3585 12.6645 74.74 12.3473 74.2727 11.8427C73.8054 11.3381 73.5717 10.4875 73.5717 9.29094C73.5717 7.9646 73.8741 6.98426 74.4926 6.3355C75.1111 5.68675 75.9907 5.26866 77.1177 5.08124C78.2447 4.89383 79.5779 4.79291 81.1172 4.79291C81.6945 4.79291 82.3542 4.80732 83.1238 4.82174C83.8935 4.85057 84.6082 4.92266 85.2679 5.03799C85.8177 5.08124 86.2575 5.18216 86.5873 5.31191C86.9172 5.44166 87.1646 5.62908 87.3295 5.84533C87.4944 6.076 87.5632 6.422 87.5632 6.86892V7.69068C87.357 7.43118 86.9997 7.22934 86.5049 7.09959C85.9963 6.96984 85.4054 6.86892 84.7319 6.79684C84.0584 6.72475 83.3575 6.68151 82.6428 6.66709C81.9281 6.65267 81.2546 6.65267 80.6362 6.65267C79.9765 6.65267 79.3305 6.69592 78.7257 6.78242C78.121 6.86892 77.6262 7.07076 77.2689 7.41676C76.8978 7.74835 76.7191 8.3106 76.7191 9.07469C76.7191 9.68019 76.8291 10.1127 77.0627 10.3722C77.2964 10.6317 77.6125 10.8047 78.0248 10.8768C78.4371 10.9489 78.9044 10.9921 79.4267 10.9921H83.2063C84.1272 10.9921 84.9243 11.0786 85.6115 11.2372C86.2987 11.4102 86.8347 11.7706 87.2196 12.3185C87.6044 12.8663 87.7968 13.7313 87.7968 14.9135C87.7968 16.2542 87.4395 17.249 86.7385 17.8978C86.0238 18.5465 85.0617 18.979 83.8523 19.1809C82.629 19.3394 81.2409 19.4404 79.6603 19.4404Z" fill="#3257A4"/>
<path d="M91.4668 19.2962C90.9445 19.2962 90.5872 19.2097 90.4223 19.0511C90.2573 18.8781 90.1611 18.5177 90.1611 17.9698V5.93183C90.4085 5.85975 90.7384 5.75883 91.137 5.6435C91.5355 5.52816 92.0028 5.39841 92.5389 5.26866C93.0749 5.13891 93.6659 5.03799 94.3256 4.96591C94.9716 4.89382 95.6588 4.86499 96.3735 4.86499C97.1981 4.86499 97.9128 4.93707 98.5038 5.06682C99.0948 5.19658 99.6171 5.44166 100.043 5.78766C100.483 6.13367 100.827 6.63825 101.101 7.28701L100.552 7.25817C100.73 6.79684 101.005 6.40759 101.376 6.09042C101.747 5.77325 102.16 5.51374 102.627 5.34074C103.094 5.16774 103.589 5.03799 104.084 4.96591C104.592 4.89382 105.06 4.86499 105.486 4.86499C106.86 4.86499 107.946 5.00916 108.729 5.28308C109.513 5.55699 110.076 6.01833 110.406 6.66709C110.736 7.31584 110.901 8.20968 110.901 9.33419V18.1284C110.901 18.633 110.818 18.9646 110.64 19.1232C110.475 19.2818 110.145 19.3538 109.664 19.3538H107.754C107.754 17.6671 107.754 15.9947 107.754 14.308C107.754 12.6212 107.754 10.9345 107.754 9.23327C107.726 8.19526 107.506 7.50326 107.066 7.14284C106.627 6.78242 105.967 6.60942 105.073 6.60942C104.661 6.60942 104.235 6.66709 103.782 6.78242C103.342 6.89775 102.957 7.07076 102.655 7.28701C102.352 7.50326 102.187 7.74835 102.187 8.03668V19.3394H98.9573V8.45477C98.9573 7.8781 98.71 7.43118 98.2014 7.09959C97.6929 6.78242 97.0469 6.60942 96.2498 6.60942C95.7687 6.60942 95.3289 6.65267 94.9166 6.73917C94.5043 6.82567 94.1607 6.941 93.8858 7.08517C93.6109 7.22934 93.446 7.41676 93.4047 7.66184V19.325H91.4668V19.2962Z" fill="#3257A4"/>
<path d="M121.003 19.5125C119.601 19.5125 118.433 19.4115 117.484 19.2241C116.536 19.0367 115.78 18.6763 115.217 18.1429C114.653 17.6094 114.254 16.8886 114.035 15.9515C113.801 15.0144 113.691 13.8034 113.691 12.3185C113.691 10.5452 113.911 9.10354 114.337 7.99345C114.777 6.88335 115.546 6.07601 116.66 5.55701C117.773 5.03801 119.326 4.7785 121.319 4.7785C122.872 4.7785 124.123 4.98034 125.043 5.36959C125.964 5.75885 126.638 6.37877 127.05 7.22936C127.462 8.06553 127.669 9.13237 127.669 10.4299V12.7366H118.02C118.02 12.3473 118.103 12.0446 118.254 11.7995C118.419 11.5544 118.707 11.4391 119.147 11.4391H124.782L124.755 10.502C124.727 9.1612 124.466 8.16645 123.944 7.54653C123.435 6.9266 122.501 6.60943 121.181 6.60943C120.082 6.60943 119.23 6.78244 118.611 7.14286C117.993 7.50327 117.553 8.07995 117.306 8.88729C117.058 9.69462 116.935 10.8047 116.935 12.2176C116.935 13.6881 117.072 14.7982 117.361 15.5478C117.649 16.2975 118.13 16.8165 118.804 17.076C119.477 17.3355 120.426 17.4653 121.635 17.4653C122.075 17.4653 122.583 17.4509 123.161 17.4364C123.738 17.4076 124.343 17.3788 124.947 17.3355C125.552 17.2923 126.102 17.2202 126.583 17.1625C127.064 17.0904 127.38 17.0183 127.545 16.9463V17.4509C127.545 17.7104 127.49 17.9843 127.38 18.2438C127.27 18.5033 127.023 18.7195 126.665 18.8925C126.184 19.1376 125.483 19.2962 124.549 19.3827C123.6 19.4692 122.418 19.5125 121.003 19.5125Z" fill="#3257A4"/>
<path d="M129.827 12.0589C129.827 10.1127 130.074 8.61331 130.583 7.5753C131.091 6.5373 131.82 5.81646 132.782 5.41279C133.744 5.02354 134.898 4.8217 136.245 4.8217C136.657 4.8217 137.139 4.83612 137.675 4.87937C138.211 4.9082 138.747 4.96587 139.269 5.03795C139.791 5.11004 140.258 5.18212 140.671 5.26862C141.083 5.35512 141.372 5.44162 141.523 5.54254L140.671 5.97504V1.10217H143.832L143.804 12.0589C143.804 13.688 143.694 14.9999 143.461 15.9659C143.227 16.9318 142.856 17.667 142.334 18.1428C141.811 18.6186 141.069 18.9501 140.135 19.1087C139.2 19.2817 138.032 19.3538 136.63 19.3538C135.324 19.3538 134.239 19.2673 133.345 19.0799C132.466 18.9069 131.765 18.5609 131.256 18.0563C130.748 17.5517 130.376 16.8165 130.157 15.865C129.937 14.9134 129.827 13.6448 129.827 12.0589ZM136.561 17.5229C137.455 17.5229 138.169 17.4508 138.719 17.321C139.269 17.1913 139.681 16.9462 139.97 16.5858C140.258 16.2254 140.451 15.7208 140.533 15.0576C140.629 14.3944 140.671 13.5439 140.671 12.477L140.643 6.9698C140.41 6.94097 140.107 6.92655 139.722 6.89772C139.338 6.86888 138.925 6.85447 138.485 6.84005C138.046 6.82563 137.647 6.82563 137.29 6.82563C136.259 6.82563 135.434 6.9698 134.816 7.24372C134.197 7.51764 133.757 8.03664 133.483 8.81515C133.208 9.57924 133.07 10.6893 133.07 12.131C133.07 13.6736 133.18 14.8269 133.4 15.591C133.62 16.3551 133.977 16.8741 134.5 17.1336C134.994 17.3931 135.682 17.5229 136.561 17.5229Z" fill="#3257A4"/>
<path d="M4.88738 0.652401C1.06377 1.3545 -1.0803 5.6853 0.555243 9.40194C0.88785 10.1531 1.2287 10.6202 2.22515 11.6784L3.15287 12.6601L3.27795 12.379C3.38515 12.144 3.55008 11.9451 4.33899 11.1204C5.33131 10.0882 5.46463 9.98006 5.90581 9.90797C6.42396 9.81715 6.85553 9.99015 7.30359 10.4645C7.66231 10.8451 7.80799 11.1305 7.83411 11.5097L7.85197 11.7865L8.1461 11.8369C8.55979 11.9047 8.7852 12.0359 9.13017 12.4021C9.47515 12.7683 9.60022 13.0047 9.66482 13.4026L9.70743 13.6881L9.98368 13.7385C10.139 13.7659 10.3465 13.8337 10.4455 13.8884C10.653 14.0009 11.1272 14.468 11.2743 14.7073C11.3952 14.9019 11.512 15.2955 11.512 15.5046C11.512 15.6444 11.5203 15.6545 11.655 15.6545C11.8488 15.6545 12.2377 15.7814 12.3971 15.8938C12.47 15.9443 12.6432 16.1014 12.7902 16.247C13.105 16.5642 13.3207 16.6406 13.619 16.5555C13.8224 16.4964 14.1578 16.1894 14.3131 15.9212C14.4258 15.7309 14.434 15.3921 14.3351 15.1874C14.2966 15.1052 13.2946 14.024 12.1126 12.7798C10.8262 11.4261 9.95894 10.476 9.95482 10.4255C9.93695 10.1358 10.0799 9.94978 10.3177 9.94978C10.4386 9.94978 10.6764 10.1805 12.6569 12.2579C13.865 13.5251 14.9137 14.5848 14.9783 14.6122C15.146 14.6756 15.3714 14.6713 15.539 14.5934C15.7507 14.4983 16.1561 14.0283 16.2166 13.8063C16.3197 13.3896 16.3802 13.4675 13.9681 10.9099C11.8666 8.68255 11.7718 8.5701 11.7718 8.41151C11.7718 8.18949 11.9147 8.04965 12.1429 8.04965C12.3064 8.04532 12.3408 8.07704 14.4904 10.3535C16.7513 12.7481 16.7609 12.7567 17.0921 12.7567C17.3464 12.7567 17.8384 12.3487 17.9896 12.0099C18.0927 11.7749 18.0927 11.6077 17.9855 11.3814C17.9291 11.2588 16.9189 10.1689 14.9563 8.10443C12.1951 5.21243 11.9958 5.0178 11.8584 5.0178C11.7209 5.0178 11.5945 5.13602 10.1101 6.68871C9.23463 7.60706 8.4361 8.40863 8.34126 8.46774C7.48638 9.01557 6.36074 8.88871 5.66117 8.16498C5.2942 7.78006 5.19937 7.25096 5.41927 6.8026C5.4715 6.70312 6.43359 5.64349 7.63344 4.36761L9.75828 2.10994L9.60709 1.97874C8.86904 1.32278 7.84235 0.834055 6.81017 0.648079C6.35799 0.561579 5.3533 0.565901 4.88738 0.652401Z" fill="#C41C1B"/>
<path d="M13.7979 0.648051C12.6503 0.855653 11.6579 1.35015 10.8113 2.14595C10.6299 2.31751 9.47812 3.52131 8.24802 4.82603L6.02148 7.19327L6.04347 7.3605C6.08608 7.6373 6.46679 7.90834 6.93684 8.00349C7.2131 8.05827 7.59656 7.99916 7.86044 7.85932C7.96765 7.80454 8.6631 7.11686 9.65542 6.08029C11.1576 4.51463 11.291 4.38776 11.5067 4.31423C11.7871 4.21908 12.1156 4.24215 12.3575 4.37334C12.4565 4.42813 13.7553 5.76313 15.5503 7.65028C18.0957 10.3304 18.5877 10.8638 18.6578 11.0454C18.7004 11.168 18.7526 11.2631 18.7705 11.2631C18.8351 11.2631 19.3491 10.6245 19.6034 10.2179C20.0569 9.51148 20.3497 8.76037 20.5132 7.88671C20.6259 7.28986 20.6163 6.13508 20.4954 5.5512C19.9511 2.94464 18.0915 1.06614 15.6327 0.649494C15.1654 0.565877 14.2418 0.565876 13.7979 0.648051Z" fill="#C41C1B"/>
<path d="M6.00043 10.6735C5.7764 10.7283 5.65545 10.8364 4.77033 11.7865C3.83436 12.7913 3.77801 12.8821 3.87284 13.2483C3.93332 13.4833 4.33052 13.9547 4.55043 14.0499C4.7181 14.1263 4.94351 14.1321 5.11118 14.0629C5.25412 14.0081 6.95839 12.2478 7.05322 12.0575C7.16592 11.8311 7.14393 11.5241 6.99687 11.279C6.74261 10.8508 6.33578 10.6014 6.00043 10.6735Z" fill="#C41C1B"/>
<path d="M7.62636 12.6659C7.42295 12.7784 5.78741 14.5084 5.73243 14.6713C5.65409 14.8789 5.67608 15.2047 5.77504 15.3777C5.82314 15.4599 5.95646 15.6271 6.07328 15.7439C6.32755 16.0063 6.55708 16.0827 6.84982 16.0063C7.0175 15.9616 7.14395 15.852 7.81603 15.16C8.23935 14.7203 8.65717 14.2676 8.74788 14.1508C8.94167 13.9014 8.9939 13.6535 8.91556 13.404C8.85096 13.1964 8.43177 12.7207 8.2421 12.6385C8.05381 12.552 7.80779 12.5621 7.62636 12.6659Z" fill="#C41C1B"/>
<path d="M9.55224 14.5444C9.42717 14.5891 9.14679 14.8529 8.49944 15.5262C8.01565 16.0336 7.5937 16.508 7.55934 16.5901C7.40816 16.9563 7.54148 17.3499 7.93043 17.7031C8.21081 17.9568 8.46096 18.0116 8.74134 17.8934C8.93925 17.8069 10.5748 16.1144 10.6957 15.8707C10.7947 15.6675 10.7988 15.4224 10.7081 15.2234C10.605 14.9928 10.1735 14.5848 9.97418 14.5257C9.76802 14.4665 9.7584 14.4665 9.55224 14.5444Z" fill="#C41C1B"/>
<path d="M11.2523 16.5137C11.0283 16.6363 9.45324 18.3202 9.37489 18.5191C9.24158 18.8579 9.31442 19.139 9.63328 19.4966C9.74049 19.6191 9.89717 19.7503 9.97826 19.7907C10.1418 19.8728 10.4139 19.8858 10.5912 19.8137C10.7424 19.7546 12.2955 18.1428 12.4646 17.8761C12.5979 17.6584 12.6281 17.396 12.547 17.1697C12.4866 16.9981 12.077 16.5584 11.9121 16.4864C11.7183 16.3999 11.4324 16.4085 11.2523 16.5137Z" fill="#C41C1B"/>
</svg>
